<?xml version="1.0" encoding="UTF-8"?>
<svg width="128px" height="128px" viewBox="0 0 128 128" version="1.1" xmlns="http://www.w3.org/2000/svg" xmlns:xlink="http://www.w3.org/1999/xlink">
    <!-- Generator: Sketch 43.1 (39012) - http://www.bohemiancoding.com/sketch -->
    <title>email</title>
    <desc>Created with Sketch.</desc>
    <defs></defs>
    <g id="Page-1" stroke="none" stroke-width="1" fill="none" fill-rule="evenodd">
        <g id="email" fill-rule="nonzero">
            <circle id="google--back" fill="#262626" cx="64" cy="64" r="64"></circle>
            <path d="M104.738,41.266 C104.734094,41.176156 104.722375,41.09022 104.710657,41.00038 C104.698938,40.922255 104.687219,40.84804 104.667688,40.76991 C104.648157,40.69178 104.620813,40.61366 104.593469,40.53553 C104.566125,40.4574 104.534875,40.37928 104.499719,40.30506 C104.468469,40.234747 104.429407,40.16834 104.390339,40.10193 C104.343464,40.027712 104.296589,39.95349 104.245809,39.88318 C104.222371,39.85193 104.210653,39.82068 104.183309,39.78943 C104.155965,39.75818 104.124715,39.734743 104.097371,39.703493 C104.038777,39.640993 103.980181,39.578493 103.913781,39.519903 C103.851281,39.465216 103.792691,39.414433 103.726281,39.367563 C103.663781,39.320687 103.597371,39.277719 103.527061,39.234753 C103.456748,39.191784 103.382531,39.152722 103.308311,39.117563 C103.237998,39.086313 103.163781,39.055063 103.093471,39.027719 C103.01144,39.000375 102.933311,38.973031 102.851281,38.9535 C102.780969,38.933969 102.706751,38.92225 102.628621,38.910531 C102.538777,38.894906 102.445031,38.887094 102.355181,38.883187 C102.320024,38.883187 102.284868,38.871469 102.245801,38.871469 L23.745801,38.871469 C23.706738,38.871469 23.667676,38.883187 23.628611,38.883187 C23.538767,38.887094 23.452831,38.894906 23.366891,38.910531 C23.288765,38.92225 23.210641,38.937875 23.136421,38.957406 C23.058296,38.976937 22.980171,39.004281 22.902041,39.031625 C22.827822,39.058969 22.753601,39.086313 22.679381,39.121469 C22.609068,39.156625 22.538751,39.195687 22.468441,39.238659 C22.398131,39.281631 22.331721,39.324597 22.269221,39.371469 C22.206721,39.418341 22.144221,39.469125 22.085631,39.523809 C22.019224,39.582402 21.960631,39.640999 21.898131,39.707399 C21.870787,39.738649 21.839537,39.762087 21.812193,39.793337 C21.788755,39.82068 21.773131,39.855837 21.749693,39.887087 C21.695005,39.957399 21.648133,40.031617 21.605163,40.105837 C21.5661,40.172243 21.527038,40.242557 21.495783,40.312867 C21.460627,40.387086 21.433283,40.461307 21.402033,40.539427 C21.374689,40.617553 21.347345,40.695677 21.327814,40.773807 C21.308283,40.848025 21.296564,40.926147 21.284845,41.004277 C21.273127,41.094121 21.261408,41.180057 21.257501,41.269897 C21.261408,41.305054 21.249689,41.336304 21.249689,41.375367 L21.249689,88.625367 C21.249689,90.008167 22.366889,91.125367 23.749689,91.125367 L102.249689,91.125367 C103.632489,91.125367 104.749689,90.008167 104.749689,88.625367 L104.749689,41.375367 C104.749689,41.336305 104.73797,41.305055 104.73797,41.265987 L104.738,41.266 Z M95.2497,43.8754 L62.9997,70.2814 L30.7497,43.8754 L95.2497,43.8754 Z M26.2497,86.1254 L26.2497,46.6524 L61.4137,75.4454 C61.87464,75.82431 62.4371,76.01181 62.9996,76.01181 C63.5621,76.01181 64.1207,75.82431 64.5855,75.4454 L99.7495,46.6524 L99.7495,86.1254 L26.2497,86.1254 Z" id="Shape" fill="#FFFFFF"></path>
        </g>
    </g>
</svg>